<svg xmlns="http://www.w3.org/2000/svg" width="32" height="32" viewBox="0 0 32 32" fill="none">
  <defs>
    <linearGradient id="grad" x1="0%" y1="0%" x2="100%" y2="100%">
      <stop offset="0%" stop-color="#003d7a" />
      <stop offset="100%" stop-color="#0056b3" />
    </linearGradient>
  </defs>
  <circle cx="16" cy="16" r="16" fill="url(#grad)" />
  <path d="M16 8C11.6 8 8 11.6 8 16C8 20.4 11.6 24 16 24C20.4 24 24 20.4 24 16C24 11.6 20.4 8 16 8ZM21.4 14.4H19.2C19 13.2 18.7 12 18.3 11C19.9 11.7 21.1 12.9 21.4 14.4ZM16 10.1C16.5 11.2 16.9 12.7 17.1 14.4H14.9C15.1 12.7 15.5 11.2 16 10.1ZM10.6 17.6C10.5 17.1 10.4 16.6 10.4 16C10.4 15.4 10.5 14.9 10.6 14.4H13.1C13 14.9 13 15.4 13 16C13 16.6 13 17.1 13.1 17.6H10.6ZM10.6 17.6C10.6 17.6 10.6 17.6 10.6 17.6L10.6 17.6ZM10.6 14.4C10.6 14.4 10.6 14.4 10.6 14.4L10.6 14.4ZM13.7 11C13.3 12 13 13.2 12.8 14.4H10.6C10.9 12.9 12.1 11.7 13.7 11ZM10.6 17.6H12.8C13 18.8 13.3 20 13.7 21C12.1 20.3 10.9 19.1 10.6 17.6ZM16 21.9C15.5 20.8 15.1 19.3 14.9 17.6H17.1C16.9 19.3 16.5 20.8 16 21.9ZM17.4 17.6H14.6C14.5 17.1 14.5 16.6 14.5 16C14.5 15.4 14.5 14.9 14.6 14.4H17.4C17.5 14.9 17.5 15.4 17.5 16C17.5 16.6 17.5 17.1 17.4 17.6ZM18.3 21C18.7 20 19 18.8 19.2 17.6H21.4C21.1 19.1 19.9 20.3 18.3 21ZM19.4 17.6C19.5 17.1 19.5 16.6 19.5 16C19.5 15.4 19.5 14.9 19.4 14.4H21.9C22 14.9 22.1 15.4 22.1 16C22.1 16.6 22 17.1 21.9 17.6H19.4Z" fill="white"/>
</svg> 